<svg aria-hidden="true" style="position: absolute; width: 0; height: 0; overflow: hidden; fill: #777;" version="1.1" xmlns="http://www.w3.org/2000/svg" xmlns:xlink="http://www.w3.org/1999/xlink">
<defs>
<symbol id="icon-person_add" viewBox="0 0 24 24">
<path d="M9 14.016q-2.531 0-5.273 1.102t-2.742 2.883v2.016h16.031v-2.016q0-1.781-2.742-2.883t-5.273-1.102zM18 9.984h-3v2.016h3v3h2.016v-3h3v-2.016h-3v-3h-2.016v3zM9 12q1.641 0 2.813-1.172t1.172-2.813-1.172-2.836-2.813-1.195-2.813 1.195-1.172 2.836 1.172 2.813 2.813 1.172z"></path>
</symbol>
<symbol id="icon-chat_bubble" viewBox="0 0 24 24">
<path d="M20.016 2.016q0.797 0 1.383 0.586t0.586 1.383v12q0 0.797-0.586 1.406t-1.383 0.609h-14.016l-3.984 3.984v-18q0-0.797 0.586-1.383t1.383-0.586h16.031z"></path>
</symbol>
<symbol id="icon-chevron-thin-left" viewBox="0 0 24 24">
<path d="M16.669 20.902c0.322 0.326 0.322 0.851 0 1.175s-0.841 0.325-1.163 0l-9.396-9.49c-0.322-0.324-0.322-0.848 0-1.175l9.396-9.49c0.322-0.324 0.841-0.324 1.163 0 0.322 0.325 0.322 0.851 0 1.175l-8.569 8.903 8.569 8.902z"></path>
</symbol>
<symbol id="icon-dots-three-horizontal" viewBox="0 0 24 24">
<path d="M12.001 9.36c-1.458 0-2.641 1.182-2.641 2.64s1.183 2.64 2.641 2.64c1.458 0 2.639-1.182 2.639-2.64s-1.181-2.64-2.639-2.64zM3.601 9.36c-1.458 0-2.641 1.182-2.641 2.64s1.183 2.64 2.641 2.64c1.458 0 2.639-1.183 2.639-2.64s-1.181-2.64-2.639-2.64zM20.401 9.36c-1.458 0-2.641 1.182-2.641 2.64s1.183 2.64 2.641 2.64c1.458 0 2.639-1.182 2.639-2.64s-1.181-2.64-2.639-2.64z"></path>
</symbol>
<symbol id="icon-heart" viewBox="0 0 24 24" >
<path d="M20.628 4.986c-2.006-1.841-5.26-1.841-7.266 0l-1.362 1.25-1.363-1.25c-2.006-1.841-5.258-1.841-7.265 0-2.257 2.072-2.257 5.424 0 7.495l8.628 7.919 8.628-7.919c2.256-2.071 2.256-5.424 0-7.495z"></path>
</symbol>
<symbol id="icon-share-alternitive" viewBox="0 0 24 24">
<path d="M10.8 15.6h2.4v-10.8h2.4l-3.6-4.8-3.6 4.8h2.4v10.8zM20.4 8.4h-3.6v2.4h2.4v10.8h-14.4v-10.8h2.4v-2.4h-3.6c-0.664 0-1.2 0.536-1.2 1.2v13.2c0 0.662 0.536 1.2 1.2 1.2h16.8c0.664 0 1.2-0.538 1.2-1.2v-13.2c0-0.662-0.536-1.2-1.2-1.2z"></path>
</symbol>
</defs>
</svg>
