<svg aria-hidden="true" style="position: absolute; width: 0; height: 0; overflow: hidden;" version="1.1" xmlns="http://www.w3.org/2000/svg" xmlns:xlink="http://www.w3.org/1999/xlink">
<defs>
<symbol id="icon-bell" viewBox="0 0 28 28">
<path d="M14.25 26.5c0-0.141-0.109-0.25-0.25-0.25-1.234 0-2.25-1.016-2.25-2.25 0-0.141-0.109-0.25-0.25-0.25s-0.25 0.109-0.25 0.25c0 1.516 1.234 2.75 2.75 2.75 0.141 0 0.25-0.109 0.25-0.25zM27 22c0 1.094-0.906 2-2 2h-7c0 2.203-1.797 4-4 4s-4-1.797-4-4h-7c-1.094 0-2-0.906-2-2 2.312-1.953 5-5.453 5-13 0-3 2.484-6.281 6.625-6.891-0.078-0.187-0.125-0.391-0.125-0.609 0-0.828 0.672-1.5 1.5-1.5s1.5 0.672 1.5 1.5c0 0.219-0.047 0.422-0.125 0.609 4.141 0.609 6.625 3.891 6.625 6.891 0 7.547 2.688 11.047 5 13z"></path>
</symbol>
<symbol id="icon-person_add" viewBox="0 0 28 28">
<path d="M10.5 16.352q-2.953 0-6.152 1.285t-3.199 3.363v2.352h18.703v-2.352q0-2.078-3.199-3.363t-6.152-1.285zM21 11.648h-3.5v2.352h3.5v3.5h2.352v-3.5h3.5v-2.352h-3.5v-3.5h-2.352v3.5zM10.5 14q1.914 0 3.281-1.367t1.367-3.281-1.367-3.309-3.281-1.395-3.281 1.395-1.367 3.309 1.367 3.281 3.281 1.367z"></path>
</symbol>
<symbol id="icon-chat_bubble" viewBox="0 0 28 28">
<path d="M23.352 2.352q0.93 0 1.613 0.684t0.684 1.613v14q0 0.93-0.684 1.641t-1.613 0.711h-16.352l-4.648 4.648v-21q0-0.93 0.684-1.613t1.613-0.684h18.703z"></path>
</symbol>
<symbol id="icon-chevron-thin-left" viewBox="0 0 28 28">
<path d="M19.447 24.385c0.375 0.381 0.375 0.993 0 1.371s-0.981 0.379-1.357 0l-10.962-11.071c-0.375-0.378-0.375-0.99 0-1.371l10.962-11.071c0.375-0.378 0.981-0.378 1.357 0 0.375 0.379 0.375 0.993 0 1.371l-9.997 10.387 9.997 10.385z"></path>
</symbol>
<symbol id="icon-dots-three-horizontal" viewBox="0 0 28 28">
<path d="M14.001 10.92c-1.701 0-3.081 1.379-3.081 3.080s1.38 3.080 3.081 3.080c1.701 0 3.079-1.379 3.079-3.080s-1.378-3.080-3.079-3.080zM4.201 10.92c-1.701 0-3.081 1.379-3.081 3.080s1.38 3.080 3.081 3.080c1.701 0 3.079-1.38 3.079-3.080s-1.378-3.080-3.079-3.080zM23.801 10.92c-1.701 0-3.081 1.379-3.081 3.080s1.38 3.080 3.081 3.080c1.701 0 3.079-1.379 3.079-3.080s-1.378-3.080-3.079-3.080z"></path>
</symbol>
<symbol id="icon-grid" viewBox="0 0 28 28">
<path d="M11.2 5.6h-4.2c-0.774 0-1.4 0.626-1.4 1.4v4.2c0 0.773 0.626 1.4 1.4 1.4h4.2c0.774 0 1.4-0.627 1.4-1.4v-4.2c0-0.773-0.626-1.4-1.4-1.4zM21 5.6h-4.2c-0.774 0-1.4 0.626-1.4 1.4v4.2c0 0.773 0.626 1.4 1.4 1.4h4.2c0.774 0 1.4-0.627 1.4-1.4v-4.2c0-0.773-0.626-1.4-1.4-1.4zM11.2 15.4h-4.2c-0.774 0-1.4 0.626-1.4 1.4v4.2c0 0.773 0.626 1.4 1.4 1.4h4.2c0.774 0 1.4-0.627 1.4-1.4v-4.2c0-0.773-0.626-1.4-1.4-1.4zM21 15.4h-4.2c-0.774 0-1.4 0.626-1.4 1.4v4.2c0 0.773 0.626 1.4 1.4 1.4h4.2c0.774 0 1.4-0.627 1.4-1.4v-4.2c0-0.773-0.626-1.4-1.4-1.4z"></path>
</symbol>
<symbol id="icon-heart" viewBox="0 0 28 28">
<path d="M24.066 5.817c-2.341-2.148-6.136-2.148-8.477 0l-1.589 1.459-1.59-1.459c-2.341-2.148-6.135-2.148-8.476 0-2.633 2.418-2.633 6.328 0 8.744l10.066 9.239 10.066-9.239c2.632-2.416 2.632-6.328 0-8.744z"></path>
</symbol>
<symbol id="icon-magnifying-glass" viewBox="0 0 28 28">
<path d="M24.563 21.654l-5.291-5.291c0.798-1.309 1.257-2.849 1.257-4.494 0-4.784-4.145-8.928-8.929-8.928-4.784-0.001-8.66 3.877-8.66 8.66 0 4.782 4.145 8.928 8.928 8.928 1.592 0 3.080-0.433 4.361-1.182l5.319 5.321c0.521 0.519 1.365 0.519 1.884 0l1.32-1.32c0.519-0.519 0.33-1.176-0.189-1.695zM5.606 11.602c0-3.312 2.684-5.996 5.995-5.996 3.312 0 6.264 2.95 6.264 6.264 0 3.311-2.685 5.996-5.996 5.996-3.312-0.001-6.262-2.953-6.262-6.264z"></path>
</symbol>
<symbol id="icon-share-alternitive" viewBox="0 0 28 28">
<path d="M12.6 18.2h2.8v-12.6h2.8l-4.2-5.6-4.2 5.6h2.8v12.6zM23.8 9.8h-4.2v2.8h2.8v12.6h-16.8v-12.6h2.8v-2.8h-4.2c-0.774 0-1.4 0.626-1.4 1.4v15.4c0 0.773 0.626 1.4 1.4 1.4h19.6c0.774 0 1.4-0.627 1.4-1.4v-15.4c0-0.773-0.626-1.4-1.4-1.4z"></path>
</symbol>
<symbol id="icon-squared-plus" viewBox="0 0 28 28">
<path d="M22.4 2.8h-16.8c-1.54 0-2.8 1.26-2.8 2.8v16.8c0 1.54 1.26 2.8 2.8 2.8h16.8c1.54 0 2.8-1.26 2.8-2.8v-16.8c0-1.54-1.26-2.8-2.8-2.8zM21 15.4h-5.6v5.6h-2.8v-5.6h-5.6v-2.8h5.6v-5.6h2.8v5.6h5.6v2.8z"></path>
</symbol>
</defs>
</svg>
